<svg width="298" height="271" viewBox="0 0 298 271" fill="none" xmlns="http://www.w3.org/2000/svg">
<path fill-rule="evenodd" clip-rule="evenodd" d="M15.802 42.373H247.482V215.873H15.802V42.373ZM263.286 215.873V231.668H247.482H15.802H0V215.873V42.373V15.804V0H15.802H247.482H263.286V15.804V42.373V215.873Z" fill="#95C11F"/>
<path fill-rule="evenodd" clip-rule="evenodd" d="M197.378 21.1676C197.378 26.9026 202.088 31.5986 208.143 31.5986C213.85 31.5986 218.565 26.9036 218.565 21.1676C218.565 15.1266 213.85 10.4316 208.143 10.4316C202.088 10.4316 197.378 15.1266 197.378 21.1676Z" fill="#282929"/>
<path fill-rule="evenodd" clip-rule="evenodd" d="M226.295 21.1676C226.295 26.9026 231.009 31.5986 237.06 31.5986C242.777 31.5986 247.482 26.9036 247.482 21.1676C247.482 15.1266 242.777 10.4316 237.06 10.4316C231.009 10.4316 226.295 15.1266 226.295 21.1676Z" fill="#282929"/>
<path fill-rule="evenodd" clip-rule="evenodd" d="M168.466 21.1676C168.466 26.9026 173.166 31.5986 178.888 31.5986C184.934 31.5986 189.638 26.9036 189.638 21.1676C189.638 15.1266 184.934 10.4316 178.888 10.4316C173.166 10.4316 168.466 15.1266 168.466 21.1676Z" fill="#282929"/>
<path fill-rule="evenodd" clip-rule="evenodd" d="M288.165 99.1948H194.686V246.47H288.165V99.1948ZM247.816 257.56C247.816 253.867 245.125 250.841 241.426 250.841C237.727 250.841 235.036 253.866 235.036 257.56C235.036 260.928 237.727 263.954 241.426 263.954C245.125 263.954 247.816 260.928 247.816 257.56ZM226.295 89.4408C226.295 90.4428 226.968 91.1208 227.64 91.1208H255.221C255.889 91.1208 256.557 90.4428 256.557 89.4408C256.557 88.7728 255.889 87.7608 255.221 87.7608H227.64C226.968 87.7618 226.295 88.7728 226.295 89.4408ZM297.246 91.4548V257.559C297.246 264.63 291.191 270.337 284.129 270.337H198.724C191.657 270.337 185.607 264.63 185.607 257.559V91.4548C185.607 84.4018 191.657 78.6768 198.724 78.6768H284.128C291.191 78.6768 297.246 84.4018 297.246 91.4548Z" fill="#95C11F"/>
<path d="M289.177 97.1719H193.68V248.159H289.177V97.1719Z" fill="#282929"/>
<path fill-rule="evenodd" clip-rule="evenodd" d="M241.426 250.841C237.728 250.841 235.036 253.866 235.036 257.56C235.036 260.928 237.727 263.954 241.426 263.954C245.125 263.954 247.816 260.929 247.816 257.56C247.816 253.866 245.124 250.841 241.426 250.841Z" fill="#282929"/>
<path fill-rule="evenodd" clip-rule="evenodd" d="M227.64 91.1207H255.221C255.889 91.1207 256.557 90.4427 256.557 89.4408C256.557 88.7728 255.889 87.7607 255.221 87.7607H227.64C226.968 87.7607 226.295 88.7728 226.295 89.4408C226.295 90.4427 226.968 91.1207 227.64 91.1207Z" fill="#282929"/>
</svg>
